M48
INCH,TZ
T1C0.0394
T2C0.0400
%
G90
G05
T1
X52000Y-46250
X52984Y-46250
X55500Y-46250
X56484Y-46250
X51766Y-40250
X52750Y-40250
T2
X49627Y-39657
X49627Y-40657
X49627Y-41657
X49627Y-42657
X49627Y-43657
X49627Y-44657
X49627Y-45657
X49627Y-46657
X58627Y-39657
X58627Y-40657
X58627Y-41657
X58627Y-42657
X58627Y-43657
X58627Y-44657
X58627Y-45657
X58627Y-46657
T0
M30
