G04 #@! TF.GenerationSoftware,KiCad,Pcbnew,(5.0.1-3-g963ef8bb5)*
G04 #@! TF.CreationDate,2019-09-08T21:06:08+10:00*
G04 #@! TF.ProjectId,d1_mosfet_hat,64315F6D6F736665745F6861742E6B69,rev?*
G04 #@! TF.SameCoordinates,Original*
G04 #@! TF.FileFunction,Copper,L2,Bot,Signal*
G04 #@! TF.FilePolarity,Positive*
%FSLAX46Y46*%
G04 Gerber Fmt 4.6, Leading zero omitted, Abs format (unit mm)*
G04 Created by KiCad (PCBNEW (5.0.1-3-g963ef8bb5)) date Sunday, 08 September 2019 at 09:06:08 pm*
%MOMM*%
%LPD*%
G01*
G04 APERTURE LIST*
G04 #@! TA.AperFunction,ComponentPad*
%ADD10C,1.800000*%
G04 #@! TD*
G04 #@! TA.AperFunction,ComponentPad*
%ADD11C,1.750000*%
G04 #@! TD*
G04 #@! TA.AperFunction,ComponentPad*
%ADD12R,1.750000X1.750000*%
G04 #@! TD*
G04 #@! TA.AperFunction,SMDPad,CuDef*
%ADD13R,1.500000X2.000000*%
G04 #@! TD*
G04 #@! TA.AperFunction,SMDPad,CuDef*
%ADD14R,3.800000X2.000000*%
G04 #@! TD*
G04 #@! TA.AperFunction,SMDPad,CuDef*
%ADD15R,1.200000X0.900000*%
G04 #@! TD*
G04 #@! TA.AperFunction,Conductor*
%ADD16C,1.000000*%
G04 #@! TD*
G04 #@! TA.AperFunction,Conductor*
%ADD17C,0.254000*%
G04 #@! TD*
G04 APERTURE END LIST*
D10*
G04 #@! TO.P,U1,16*
G04 #@! TO.N,Net-(U1-Pad16)*
X126051805Y-118509629D03*
G04 #@! TO.P,U1,1*
G04 #@! TO.N,+5V*
X148911805Y-118509629D03*
G04 #@! TO.P,U1,15*
G04 #@! TO.N,Net-(U1-Pad15)*
X126051805Y-115969629D03*
G04 #@! TO.P,U1,2*
G04 #@! TO.N,GND*
X148911805Y-115969629D03*
G04 #@! TO.P,U1,14*
G04 #@! TO.N,Net-(U1-Pad14)*
X126051805Y-113429629D03*
G04 #@! TO.P,U1,3*
G04 #@! TO.N,Net-(U1-Pad3)*
X148911805Y-113429629D03*
G04 #@! TO.P,U1,13*
G04 #@! TO.N,Net-(U1-Pad13)*
X126051805Y-110889629D03*
G04 #@! TO.P,U1,4*
G04 #@! TO.N,Net-(U1-Pad4)*
X148911805Y-110889629D03*
G04 #@! TO.P,U1,12*
G04 #@! TO.N,Net-(U1-Pad12)*
X126051805Y-108349629D03*
G04 #@! TO.P,U1,5*
G04 #@! TO.N,Net-(U1-Pad5)*
X148911805Y-108349629D03*
G04 #@! TO.P,U1,11*
G04 #@! TO.N,Net-(U1-Pad11)*
X126051805Y-105809629D03*
G04 #@! TO.P,U1,6*
G04 #@! TO.N,Net-(Q1-Pad1)*
X148911805Y-105809629D03*
G04 #@! TO.P,U1,10*
G04 #@! TO.N,Net-(U1-Pad10)*
X126051805Y-103269629D03*
G04 #@! TO.P,U1,7*
G04 #@! TO.N,Net-(U1-Pad7)*
X148911805Y-103269629D03*
G04 #@! TO.P,U1,9*
G04 #@! TO.N,Net-(U1-Pad9)*
X126051805Y-100729629D03*
G04 #@! TO.P,U1,8*
G04 #@! TO.N,Net-(U1-Pad8)*
X148911805Y-100729629D03*
G04 #@! TD*
D11*
G04 #@! TO.P,J1,2*
G04 #@! TO.N,GND*
X134580000Y-117475000D03*
D12*
G04 #@! TO.P,J1,1*
G04 #@! TO.N,/BATT+*
X132080000Y-117475000D03*
G04 #@! TD*
D11*
G04 #@! TO.P,J2,2*
G04 #@! TO.N,/DRAIN*
X131485000Y-102235000D03*
D12*
G04 #@! TO.P,J2,1*
G04 #@! TO.N,/BATT+*
X133985000Y-102235000D03*
G04 #@! TD*
G04 #@! TO.P,J3,1*
G04 #@! TO.N,/BATT+*
X140970000Y-117475000D03*
D11*
G04 #@! TO.P,J3,2*
G04 #@! TO.N,GND*
X143470000Y-117475000D03*
G04 #@! TD*
D13*
G04 #@! TO.P,Q1,1*
G04 #@! TO.N,Net-(Q1-Pad1)*
X144540000Y-106020000D03*
G04 #@! TO.P,Q1,3*
G04 #@! TO.N,GND*
X139940000Y-106020000D03*
G04 #@! TO.P,Q1,2*
G04 #@! TO.N,/DRAIN*
X142240000Y-106020000D03*
D14*
G04 #@! TO.P,Q1,4*
X142240000Y-99720000D03*
G04 #@! TD*
D15*
G04 #@! TO.P,R1,2*
G04 #@! TO.N,GND*
X143045000Y-111125000D03*
G04 #@! TO.P,R1,1*
G04 #@! TO.N,Net-(Q1-Pad1)*
X145245000Y-111125000D03*
G04 #@! TD*
D16*
G04 #@! TO.N,/BATT+*
X132080000Y-117475000D02*
X132080000Y-119380000D01*
X132080000Y-119380000D02*
X132715000Y-120015000D01*
X132715000Y-120015000D02*
X140335000Y-120015000D01*
X140335000Y-120015000D02*
X140970000Y-119380000D01*
X140970000Y-119380000D02*
X140970000Y-117475000D01*
X133985000Y-113695000D02*
X133985000Y-104110000D01*
X133985000Y-104110000D02*
X133985000Y-102235000D01*
X132080000Y-115600000D02*
X133985000Y-113695000D01*
X132080000Y-117475000D02*
X132080000Y-115600000D01*
G04 #@! TO.N,Net-(Q1-Pad1)*
X145245000Y-106725000D02*
X144540000Y-106020000D01*
X145245000Y-111125000D02*
X145245000Y-106725000D01*
X148701434Y-106020000D02*
X148911805Y-105809629D01*
X144540000Y-106020000D02*
X148701434Y-106020000D01*
G04 #@! TO.N,GND*
X134580000Y-116237564D02*
X134580000Y-117475000D01*
X134620000Y-116197564D02*
X134580000Y-116237564D01*
X134627436Y-116197564D02*
X134620000Y-116197564D01*
X135725001Y-115099999D02*
X134627436Y-116197564D01*
X143470000Y-117475000D02*
X143470000Y-115524998D01*
X143045001Y-115099999D02*
X135725001Y-115099999D01*
X143470000Y-115524998D02*
X143045001Y-115099999D01*
X143914631Y-115969629D02*
X143470000Y-115524998D01*
X148911805Y-115969629D02*
X143914631Y-115969629D01*
X143045000Y-112575000D02*
X143045000Y-111125000D01*
X143045001Y-115099999D02*
X143045000Y-112575000D01*
X139940000Y-108020000D02*
X139940000Y-106020000D01*
X143045000Y-111125000D02*
X139940000Y-108020000D01*
G04 #@! TO.N,/DRAIN*
X131485000Y-102235000D02*
X131485000Y-100290000D01*
X131485000Y-100290000D02*
X132080000Y-99695000D01*
X135895002Y-99695000D02*
X137795000Y-101594998D01*
X132080000Y-99695000D02*
X135895002Y-99695000D01*
X137795000Y-101594998D02*
X137795000Y-103505000D01*
X137795000Y-103505000D02*
X142240000Y-103505000D01*
X142240000Y-103505000D02*
X142240000Y-106020000D01*
G04 #@! TD*
D17*
G04 #@! TO.N,/DRAIN*
G36*
X149733000Y-97663000D02*
X146685000Y-97663000D01*
X146636399Y-97672667D01*
X146595197Y-97700197D01*
X146567667Y-97741399D01*
X146558000Y-97790000D01*
X146558000Y-104013000D01*
X145811464Y-104013000D01*
X145729733Y-103958389D01*
X145290000Y-103870921D01*
X143790000Y-103870921D01*
X143350267Y-103958389D01*
X143268536Y-104013000D01*
X141211464Y-104013000D01*
X141129733Y-103958389D01*
X140690000Y-103870921D01*
X139190000Y-103870921D01*
X138750267Y-103958389D01*
X138668536Y-104013000D01*
X135612000Y-104013000D01*
X135612000Y-103962961D01*
X135672522Y-103922522D01*
X135921611Y-103549733D01*
X136009079Y-103110000D01*
X136009079Y-101360000D01*
X135921611Y-100920267D01*
X135672522Y-100547478D01*
X135299733Y-100298389D01*
X134860000Y-100210921D01*
X133110000Y-100210921D01*
X132670267Y-100298389D01*
X132297478Y-100547478D01*
X132048389Y-100920267D01*
X131960921Y-101360000D01*
X131960921Y-103110000D01*
X132048389Y-103549733D01*
X132297478Y-103922522D01*
X132358000Y-103962961D01*
X132358000Y-104013000D01*
X128397000Y-104013000D01*
X128397000Y-97790000D01*
X128387333Y-97741399D01*
X128359803Y-97700197D01*
X128318601Y-97672667D01*
X128270000Y-97663000D01*
X125222000Y-97663000D01*
X125222000Y-93472000D01*
X149733000Y-93472000D01*
X149733000Y-97663000D01*
X149733000Y-97663000D01*
G37*
X149733000Y-97663000D02*
X146685000Y-97663000D01*
X146636399Y-97672667D01*
X146595197Y-97700197D01*
X146567667Y-97741399D01*
X146558000Y-97790000D01*
X146558000Y-104013000D01*
X145811464Y-104013000D01*
X145729733Y-103958389D01*
X145290000Y-103870921D01*
X143790000Y-103870921D01*
X143350267Y-103958389D01*
X143268536Y-104013000D01*
X141211464Y-104013000D01*
X141129733Y-103958389D01*
X140690000Y-103870921D01*
X139190000Y-103870921D01*
X138750267Y-103958389D01*
X138668536Y-104013000D01*
X135612000Y-104013000D01*
X135612000Y-103962961D01*
X135672522Y-103922522D01*
X135921611Y-103549733D01*
X136009079Y-103110000D01*
X136009079Y-101360000D01*
X135921611Y-100920267D01*
X135672522Y-100547478D01*
X135299733Y-100298389D01*
X134860000Y-100210921D01*
X133110000Y-100210921D01*
X132670267Y-100298389D01*
X132297478Y-100547478D01*
X132048389Y-100920267D01*
X131960921Y-101360000D01*
X131960921Y-103110000D01*
X132048389Y-103549733D01*
X132297478Y-103922522D01*
X132358000Y-103962961D01*
X132358000Y-104013000D01*
X128397000Y-104013000D01*
X128397000Y-97790000D01*
X128387333Y-97741399D01*
X128359803Y-97700197D01*
X128318601Y-97672667D01*
X128270000Y-97663000D01*
X125222000Y-97663000D01*
X125222000Y-93472000D01*
X149733000Y-93472000D01*
X149733000Y-97663000D01*
G04 #@! TD*
M02*
