<?xml version="1.0" standalone="no"?>
<!DOCTYPE svg PUBLIC "-//W3C//DTD SVG 1.1//EN"
"http://www.w3.org/Graphics/SVG/1.1/DTD/svg11.dtd">
<svg width="2295.8" height="2945.8" viewBox="0 0 2295.8 2945.8" version="1.1"
xmlns="http://www.w3.org/2000/svg"
xmlns:xlink="http://www.w3.org/1999/xlink">
<circle cx="2048.3" cy="2104.3" r="39.4" style=""/>
<circle cx="2048.3" cy="1904.3" r="39.4" style=""/>
<circle cx="2048.3" cy="1704.3" r="39.4" style=""/>
<circle cx="2048.3" cy="1504.3" r="39.4" style=""/>
<circle cx="2048.3" cy="1304.3" r="39.4" style=""/>
<circle cx="2048.3" cy="1104.3" r="39.4" style=""/>
<circle cx="2048.3" cy="904.298" r="39.4" style=""/>
<circle cx="2048.3" cy="704.298" r="39.4" style=""/>
<circle cx="872.897" cy="822.898" r="39.4" style=""/>
<circle cx="676.097" cy="822.898" r="39.4" style=""/>
<circle cx="248.297" cy="904.298" r="39.4" style=""/>
<circle cx="248.297" cy="1104.3" r="39.4" style=""/>
<circle cx="248.297" cy="1304.3" r="39.4" style=""/>
<circle cx="248.297" cy="1504.3" r="39.4" style=""/>
<circle cx="248.297" cy="1704.3" r="39.4" style=""/>
<circle cx="248.297" cy="1904.3" r="39.4" style=""/>
<circle cx="248.297" cy="2104.3" r="39.4" style=""/>
<circle cx="722.897" cy="2022.9" r="39.4" style=""/>
<circle cx="919.697" cy="2022.9" r="39.4" style=""/>
<circle cx="1422.9" cy="2022.9" r="39.4" style=""/>
<circle cx="1619.7" cy="2022.9" r="39.4" style=""/>
<circle cx="248.297" cy="704.298" r="39.4" style=""/>
</svg>
