<?xml version="1.0" standalone="no"?>
<!DOCTYPE svg PUBLIC "-//W3C//DTD SVG 1.1//EN"
"http://www.w3.org/Graphics/SVG/1.1/DTD/svg11.dtd">
<svg width="2287" height="2937" viewBox="0 0 2287 2937" version="1.1"
xmlns="http://www.w3.org/2000/svg"
xmlns:xlink="http://www.w3.org/1999/xlink">
<g fill-rule="evenodd"><path d="M 205.833,2381.18 L 69.4599,2381.18 L 56.9663,2379.92 L 56.4724,2379.82 L 44.6905,2376.21 L 33.8383,2370.37 L 24.3316,2362.52 L 16.5343,2352.98 L 10.7463,2342.1 L 7.18751,2330.3 L 7.09354,2329.83 L 5.90196,2317.63 L 5.90196,69.5565 L 7.13353,57.1568 L 7.2295,56.6789 L 10.8362,44.869 L 16.6782,33.9908 L 24.5295,24.4621 L 34.0902,16.6488 L 44.9924,10.8508 L 56.8163,7.29002 L 57.2942,7.19606 L 69.446,6.01447 L 2217.55,6.01447 L 2230,7.25604 L 2230.48,7.352 L 2242.26,10.9588 L 2253.11,16.7887 L 2262.62,24.622 L 2270.43,34.1587 L 2276.23,45.031 L 2279.79,56.8269 L 2279.89,57.3207 L 2281.1,69.5745 L 2281.1,2867.54 L 2280.66,2874.94 L 2279.35,2882.25 L 2279.27,2882.61 L 2275.44,2893.8 L 2269.58,2904.08 L 2261.9,2913.09 L 2252.67,2920.49 L 2242.22,2926.04 L 2230.91,2929.54 L 2230.37,2929.65 L 2217.49,2930.98 L 268.873,2930.87 L 256.559,2929.65 L 244.723,2926.06 L 233.819,2920.21 L 224.268,2912.35 L 216.439,2902.77 L 210.635,2891.84 L 210.561,2891.66 L 207.024,2879.92 L 205.833,2867.72 L 205.833,2381.18 z " style="fill-opacity:1.000000;fill:rgb(167,241,217);stroke:rgb(0,0,0);stroke-width:2"/></g>
</svg>
