<?xml version="1.0" standalone="no"?>
<!DOCTYPE svg PUBLIC "-//W3C//DTD SVG 1.1//EN"
"http://www.w3.org/Graphics/SVG/1.1/DTD/svg11.dtd">
<svg width="1950" height="2139" viewBox="0 0 1950 2139" version="1.1"
xmlns="http://www.w3.org/2000/svg"
xmlns:xlink="http://www.w3.org/1999/xlink">
<g fill-rule="evenodd"><path d="M 146.347,1981.12 L 144.798,1995.85 L 140.22,2009.94 L 132.814,2022.77 L 122.903,2033.78 L 110.919,2042.48 L 97.3878,2048.51 L 82.8983,2051.59 L 68.0889,2051.59 L 53.5994,2048.51 L 40.0677,2042.48 L 28.0838,2033.78 L 18.1735,2022.77 L 10.7668,2009.94 L 6.18958,1995.85 L 4.63985,1981.12 L 6.18958,1966.39 L 10.7668,1952.31 L 18.1735,1939.48 L 28.0838,1928.47 L 40.0677,1919.76 L 53.5994,1913.74 L 68.0889,1910.66 L 82.8983,1910.66 L 97.3878,1913.74 L 110.919,1919.76 L 122.903,1928.47 L 132.814,1939.48 L 140.22,1952.31 L 144.798,1966.39 L 146.347,1981.12 z " style="fill-opacity:1.000000;fill:rgb(167,241,217);stroke:rgb(0,0,0);stroke-width:2"/></g>
<g fill-rule="evenodd"><path d="M 1946.04,1981.12 L 1944.49,1995.85 L 1939.91,2009.94 L 1932.5,2022.77 L 1922.59,2033.78 L 1910.61,2042.48 L 1897.08,2048.51 L 1882.59,2051.59 L 1867.78,2051.59 L 1853.29,2048.51 L 1839.76,2042.48 L 1827.77,2033.78 L 1817.86,2022.77 L 1810.46,2009.94 L 1805.88,1995.85 L 1804.33,1981.12 L 1805.88,1966.39 L 1810.46,1952.31 L 1817.86,1939.48 L 1827.77,1928.47 L 1839.76,1919.76 L 1853.29,1913.74 L 1867.78,1910.66 L 1882.59,1910.66 L 1897.08,1913.74 L 1910.61,1919.76 L 1922.59,1928.47 L 1932.5,1939.48 L 1939.91,1952.31 L 1944.49,1966.39 L 1946.04,1981.12 z " style="fill-opacity:1.000000;fill:rgb(42,130,200);stroke:rgb(0,0,0);stroke-width:2"/></g>
<g fill-rule="evenodd"><path d="M 146.347,1781.16 L 144.798,1795.89 L 140.22,1809.98 L 132.814,1822.8 L 122.903,1833.81 L 110.919,1842.52 L 97.3878,1848.54 L 82.8983,1851.62 L 68.0889,1851.62 L 53.5994,1848.54 L 40.0677,1842.52 L 28.0838,1833.81 L 18.1735,1822.8 L 10.7668,1809.98 L 6.18958,1795.89 L 4.63985,1781.16 L 6.18958,1766.43 L 10.7668,1752.34 L 18.1735,1739.51 L 28.0838,1728.51 L 40.0677,1719.8 L 53.5994,1713.77 L 68.0889,1710.7 L 82.8983,1710.7 L 97.3878,1713.77 L 110.919,1719.8 L 122.903,1728.51 L 132.814,1739.51 L 140.22,1752.34 L 144.798,1766.43 L 146.347,1781.16 z " style="fill-opacity:1.000000;fill:rgb(216,254,67);stroke:rgb(0,0,0);stroke-width:2"/></g>
<g fill-rule="evenodd"><path d="M 146.347,1581.19 L 144.798,1595.92 L 140.22,1610.01 L 132.814,1622.84 L 122.903,1633.85 L 110.919,1642.55 L 97.3878,1648.58 L 82.8983,1651.66 L 68.0889,1651.66 L 53.5994,1648.58 L 40.0677,1642.55 L 28.0838,1633.85 L 18.1735,1622.84 L 10.7668,1610.01 L 6.18958,1595.92 L 4.63985,1581.19 L 6.18958,1566.46 L 10.7668,1552.38 L 18.1735,1539.55 L 28.0838,1528.54 L 40.0677,1519.83 L 53.5994,1513.81 L 68.0889,1510.73 L 82.8983,1510.73 L 97.3878,1513.81 L 110.919,1519.83 L 122.903,1528.54 L 132.814,1539.55 L 140.22,1552.38 L 144.798,1566.46 L 146.347,1581.19 z " style="fill-opacity:1.000000;fill:rgb(77,152,85);stroke:rgb(0,0,0);stroke-width:2"/></g>
<g fill-rule="evenodd"><path d="M 1946.04,1581.19 L 1944.49,1595.92 L 1939.91,1610.01 L 1932.5,1622.84 L 1922.59,1633.85 L 1910.61,1642.55 L 1897.08,1648.58 L 1882.59,1651.66 L 1867.78,1651.66 L 1853.29,1648.58 L 1839.76,1642.55 L 1827.77,1633.85 L 1817.86,1622.84 L 1810.46,1610.01 L 1805.88,1595.92 L 1804.33,1581.19 L 1805.88,1566.46 L 1810.46,1552.38 L 1817.86,1539.55 L 1827.77,1528.54 L 1839.76,1519.83 L 1853.29,1513.81 L 1867.78,1510.73 L 1882.59,1510.73 L 1897.08,1513.81 L 1910.61,1519.83 L 1922.59,1528.54 L 1932.5,1539.55 L 1939.91,1552.38 L 1944.49,1566.46 L 1946.04,1581.19 z " style="fill-opacity:1.000000;fill:rgb(140,226,179);stroke:rgb(0,0,0);stroke-width:2"/></g>
<g fill-rule="evenodd"><path d="M 146.347,1381.23 L 144.798,1395.96 L 140.22,1410.05 L 132.814,1422.87 L 122.903,1433.88 L 110.919,1442.59 L 97.3878,1448.61 L 82.8983,1451.69 L 68.0889,1451.69 L 53.5994,1448.61 L 40.0677,1442.59 L 28.0838,1433.88 L 18.1735,1422.87 L 10.7668,1410.05 L 6.18958,1395.96 L 4.63985,1381.23 L 6.18958,1366.5 L 10.7668,1352.41 L 18.1735,1339.58 L 28.0838,1328.58 L 40.0677,1319.87 L 53.5994,1313.84 L 68.0889,1310.76 L 82.8983,1310.76 L 97.3878,1313.84 L 110.919,1319.87 L 122.903,1328.58 L 132.814,1339.58 L 140.22,1352.41 L 144.798,1366.5 L 146.347,1381.23 z " style="fill-opacity:1.000000;fill:rgb(71,23,17);stroke:rgb(0,0,0);stroke-width:2"/></g>
<g fill-rule="evenodd"><path d="M 1946.04,1381.23 L 1944.49,1395.96 L 1939.91,1410.05 L 1932.5,1422.87 L 1922.59,1433.88 L 1910.61,1442.59 L 1897.08,1448.61 L 1882.59,1451.69 L 1867.78,1451.69 L 1853.29,1448.61 L 1839.76,1442.59 L 1827.77,1433.88 L 1817.86,1422.87 L 1810.46,1410.05 L 1805.88,1395.96 L 1804.33,1381.23 L 1805.88,1366.5 L 1810.46,1352.41 L 1817.86,1339.58 L 1827.77,1328.58 L 1839.76,1319.87 L 1853.29,1313.84 L 1867.78,1310.76 L 1882.59,1310.76 L 1897.08,1313.84 L 1910.61,1319.87 L 1922.59,1328.58 L 1932.5,1339.58 L 1939.91,1352.41 L 1944.49,1366.5 L 1946.04,1381.23 z " style="fill-opacity:1.000000;fill:rgb(152,84,47);stroke:rgb(0,0,0);stroke-width:2"/></g>
<g fill-rule="evenodd"><path d="M 146.347,1181.26 L 144.798,1195.99 L 140.22,1210.08 L 132.814,1222.91 L 122.903,1233.92 L 110.919,1242.62 L 97.3878,1248.65 L 82.8983,1251.73 L 68.0889,1251.73 L 53.5994,1248.65 L 40.0677,1242.62 L 28.0838,1233.92 L 18.1735,1222.91 L 10.7668,1210.08 L 6.18958,1195.99 L 4.63985,1181.26 L 6.18958,1166.53 L 10.7668,1152.45 L 18.1735,1139.62 L 28.0838,1128.61 L 40.0677,1119.9 L 53.5994,1113.88 L 68.0889,1110.8 L 82.8983,1110.8 L 97.3878,1113.88 L 110.919,1119.9 L 122.903,1128.61 L 132.814,1139.62 L 140.22,1152.45 L 144.798,1166.53 L 146.347,1181.26 z " style="fill-opacity:1.000000;fill:rgb(17,45,5);stroke:rgb(0,0,0);stroke-width:2"/></g>
<g fill-rule="evenodd"><path d="M 1946.04,1181.26 L 1944.49,1195.99 L 1939.91,1210.08 L 1932.5,1222.91 L 1922.59,1233.92 L 1910.61,1242.62 L 1897.08,1248.65 L 1882.59,1251.73 L 1867.78,1251.73 L 1853.29,1248.65 L 1839.76,1242.62 L 1827.77,1233.92 L 1817.86,1222.91 L 1810.46,1210.08 L 1805.88,1195.99 L 1804.33,1181.26 L 1805.88,1166.53 L 1810.46,1152.45 L 1817.86,1139.62 L 1827.77,1128.61 L 1839.76,1119.9 L 1853.29,1113.88 L 1867.78,1110.8 L 1882.59,1110.8 L 1897.08,1113.88 L 1910.61,1119.9 L 1922.59,1128.61 L 1932.5,1139.62 L 1939.91,1152.45 L 1944.49,1166.53 L 1946.04,1181.26 z " style="fill-opacity:1.000000;fill:rgb(88,245,107);stroke:rgb(0,0,0);stroke-width:2"/></g>
<g fill-rule="evenodd"><path d="M 146.347,981.297 L 144.798,996.027 L 140.22,1010.11 L 132.814,1022.94 L 122.903,1033.95 L 110.919,1042.66 L 97.3878,1048.68 L 82.8983,1051.76 L 68.0889,1051.76 L 53.5994,1048.68 L 40.0677,1042.66 L 28.0838,1033.95 L 18.1735,1022.94 L 10.7668,1010.11 L 6.18958,996.027 L 4.63985,981.297 L 6.18958,966.568 L 10.7668,952.48 L 18.1735,939.652 L 28.0838,928.644 L 40.0677,919.938 L 53.5994,913.913 L 68.0889,910.833 L 82.8983,910.833 L 97.3878,913.913 L 110.919,919.938 L 122.903,928.644 L 132.814,939.652 L 140.22,952.48 L 144.798,966.568 L 146.347,981.297 z " style="fill-opacity:1.000000;fill:rgb(214,136,7);stroke:rgb(0,0,0);stroke-width:2"/></g>
<g fill-rule="evenodd"><path d="M 146.347,781.332 L 144.798,796.061 L 140.22,810.149 L 132.814,822.977 L 122.903,833.985 L 110.919,842.691 L 97.3878,848.716 L 82.8983,851.796 L 68.0889,851.796 L 53.5994,848.716 L 40.0677,842.691 L 28.0838,833.985 L 18.1735,822.977 L 10.7668,810.149 L 6.18958,796.061 L 4.63985,781.332 L 6.18958,766.602 L 10.7668,752.515 L 18.1735,739.687 L 28.0838,728.679 L 40.0677,719.972 L 53.5994,713.948 L 68.0889,710.868 L 82.8983,710.868 L 97.3878,713.948 L 110.919,719.972 L 122.903,728.679 L 132.814,739.687 L 140.22,752.515 L 144.798,766.602 L 146.347,781.332 z " style="fill-opacity:1.000000;fill:rgb(153,146,72);stroke:rgb(0,0,0);stroke-width:2"/></g>
<g fill-rule="evenodd"><path d="M 1946.04,781.332 L 1944.49,796.061 L 1939.91,810.149 L 1932.5,822.977 L 1922.59,833.985 L 1910.61,842.691 L 1897.08,848.716 L 1882.59,851.796 L 1867.78,851.796 L 1853.29,848.716 L 1839.76,842.691 L 1827.77,833.985 L 1817.86,822.977 L 1810.46,810.149 L 1805.88,796.061 L 1804.33,781.332 L 1805.88,766.602 L 1810.46,752.515 L 1817.86,739.687 L 1827.77,728.679 L 1839.76,719.972 L 1853.29,713.948 L 1867.78,710.868 L 1882.59,710.868 L 1897.08,713.948 L 1910.61,719.972 L 1922.59,728.679 L 1932.5,739.687 L 1939.91,752.515 L 1944.49,766.602 L 1946.04,781.332 z " style="fill-opacity:1.000000;fill:rgb(51,98,65);stroke:rgb(0,0,0);stroke-width:2"/></g>
<g fill-rule="evenodd"><path d="M 146.347,581.366 L 144.798,596.096 L 140.22,610.183 L 132.814,623.011 L 122.903,634.019 L 110.919,642.726 L 97.3878,648.751 L 82.8983,651.83 L 68.0889,651.83 L 53.5994,648.751 L 40.0677,642.726 L 28.0838,634.019 L 18.1735,623.011 L 10.7668,610.183 L 6.18958,596.096 L 4.63985,581.366 L 6.18958,566.637 L 10.7668,552.549 L 18.1735,539.722 L 28.0838,528.714 L 40.0677,520.007 L 53.5994,513.982 L 68.0889,510.903 L 82.8983,510.903 L 97.3878,513.982 L 110.919,520.007 L 122.903,528.714 L 132.814,539.722 L 140.22,552.549 L 144.798,566.637 L 146.347,581.366 z " style="fill-opacity:1.000000;fill:rgb(243,13,35);stroke:rgb(0,0,0);stroke-width:2"/></g>
<g fill-rule="evenodd"><path d="M 1946.04,581.366 L 1944.49,596.096 L 1939.91,610.183 L 1932.5,623.011 L 1922.59,634.019 L 1910.61,642.726 L 1897.08,648.751 L 1882.59,651.83 L 1867.78,651.83 L 1853.29,648.751 L 1839.76,642.726 L 1827.77,634.019 L 1817.86,623.011 L 1810.46,610.183 L 1805.88,596.096 L 1804.33,581.366 L 1805.88,566.637 L 1810.46,552.549 L 1817.86,539.722 L 1827.77,528.714 L 1839.76,520.007 L 1853.29,513.982 L 1867.78,510.903 L 1882.59,510.903 L 1897.08,513.982 L 1910.61,520.007 L 1922.59,528.714 L 1932.5,539.722 L 1939.91,552.549 L 1944.49,566.637 L 1946.04,581.366 z " style="fill-opacity:1.000000;fill:rgb(229,95,48);stroke:rgb(0,0,0);stroke-width:2"/></g>
<g fill-rule="evenodd"><path d="M 1199.96,2139 L 600.065,2139 L 592.384,2138.24 L 584.999,2136 L 578.195,2132.37 L 572.23,2127.47 L 522.238,2077.48 L 517.343,2071.51 L 513.706,2064.71 L 511.466,2057.33 L 510.71,2049.65 L 510.71,1968.56 L 481.189,1968.56 L 481.189,1830.79 L 510.71,1830.79 L 510.71,1752.06 L 511.466,1744.38 L 513.706,1736.99 L 517.343,1730.19 L 522.238,1724.22 L 660.684,1585.78 L 660.684,768.764 L 631.163,768.764 L 631.163,630.996 L 768.932,630.996 L 768.932,768.764 L 739.411,768.764 L 739.411,1602.09 L 738.653,1609.76 L 736.413,1617.15 L 732.776,1623.95 L 727.881,1629.92 L 589.437,1768.36 L 589.437,1830.79 L 618.958,1830.79 L 618.958,1968.56 L 589.437,1968.56 L 589.437,2033.34 L 616.37,2060.27 L 1183.65,2060.27 L 1210.59,2033.34 L 1210.59,1968.56 L 1181.07,1968.56 L 1181.07,1830.79 L 1318.84,1830.79 L 1318.84,1968.56 L 1289.32,1968.56 L 1289.32,2049.65 L 1288.56,2057.33 L 1286.32,2064.71 L 1282.68,2071.51 L 1277.79,2077.48 L 1227.79,2127.47 L 1221.83,2132.37 L 1215.02,2136 L 1207.64,2138.24 L 1199.96,2139 z " style="fill-opacity:1.000000;fill:rgb(209,200,237);stroke:rgb(0,0,0);stroke-width:2"/></g>
<g fill-rule="evenodd"><path d="M 786.253,1843.59 L 792.981,1848.48 L 802.618,1859.18 L 809.819,1871.66 L 814.268,1885.35 L 815.774,1899.67 L 814.268,1913.99 L 809.819,1927.69 L 802.618,1940.16 L 792.981,1950.86 L 781.332,1959.33 L 768.176,1965.19 L 754.088,1968.18 L 739.691,1968.18 L 725.603,1965.19 L 712.447,1959.33 L 700.797,1950.86 L 691.161,1940.16 L 683.96,1927.69 L 679.511,1913.99 L 678.005,1899.67 L 679.511,1885.35 L 683.96,1871.66 L 691.161,1859.18 L 700.797,1848.48 L 707.526,1843.59 L 707.526,1802.25 L 708.282,1794.57 L 710.522,1787.19 L 714.159,1780.38 L 719.054,1774.42 L 722.204,1771.27 L 725.459,1768.6 L 809.195,1684.86 L 815.16,1679.97 L 821.964,1676.33 L 829.349,1674.09 L 837.03,1673.33 L 1373.94,1673.33 L 1373.94,1435.18 L 1366.07,1435.18 L 1366.07,1408.19 L 1141.03,1183.14 L 1136.13,1177.18 L 1132.49,1170.37 L 1130.26,1162.99 L 1129.5,1155.31 L 1129.5,1076.58 L 1109.82,1076.58 L 1109.82,919.132 L 1227.91,919.132 L 1227.91,1076.58 L 1208.23,1076.58 L 1208.23,1139.01 L 1433.55,1364.33 L 1460.54,1364.33 L 1460.54,1435.18 L 1452.67,1435.18 L 1452.67,1696.39 L 1498.08,1741.8 L 1816.54,1741.8 L 1817.86,1739.51 L 1827.77,1728.51 L 1839.76,1719.8 L 1853.29,1713.77 L 1867.78,1710.7 L 1882.59,1710.7 L 1897.08,1713.77 L 1910.61,1719.8 L 1922.59,1728.51 L 1932.5,1739.51 L 1939.91,1752.34 L 1944.49,1766.43 L 1946.04,1781.16 L 1944.49,1795.89 L 1939.91,1809.98 L 1932.5,1822.8 L 1922.59,1833.81 L 1910.61,1842.52 L 1897.08,1848.54 L 1882.59,1851.62 L 1867.78,1851.62 L 1853.29,1848.54 L 1839.76,1842.52 L 1827.77,1833.81 L 1817.86,1822.8 L 1816.55,1820.52 L 1486.13,1820.52 L 1486.13,1843.59 L 1492.86,1848.48 L 1502.5,1859.18 L 1509.7,1871.66 L 1514.15,1885.35 L 1515.65,1899.67 L 1514.15,1913.99 L 1509.7,1927.69 L 1502.5,1940.16 L 1492.86,1950.86 L 1481.21,1959.33 L 1468.05,1965.19 L 1453.97,1968.18 L 1439.57,1968.18 L 1425.48,1965.19 L 1412.33,1959.33 L 1400.68,1950.86 L 1391.04,1940.16 L 1383.84,1927.69 L 1379.39,1913.99 L 1377.88,1899.67 L 1379.39,1885.35 L 1383.84,1871.66 L 1391.04,1859.18 L 1400.68,1848.48 L 1407.41,1843.59 L 1407.41,1762.46 L 1397.01,1752.06 L 853.333,1752.06 L 786.253,1819.14 L 786.253,1843.59 z " style="fill-opacity:1.000000;fill:rgb(97,12,75);stroke:rgb(0,0,0);stroke-width:2"/></g>
<g fill-rule="evenodd"><path d="M 1625.87,1364.33 L 1633.74,1364.33 L 1633.74,1435.18 L 1603.19,1435.18 L 1598.67,1437.19 L 1590.62,1438.91 L 1582.39,1438.91 L 1574.34,1437.19 L 1569.83,1435.18 L 1539.27,1435.18 L 1539.27,1364.33 L 1547.15,1364.33 L 1547.15,1076.58 L 1471.96,1076.58 L 1471.96,919.132 L 1590.05,919.132 L 1590.05,958.495 L 1808.5,958.495 L 1810.46,952.48 L 1817.86,939.652 L 1827.77,928.644 L 1839.76,919.938 L 1853.29,913.913 L 1867.78,910.833 L 1882.59,910.833 L 1897.08,913.913 L 1910.61,919.938 L 1922.59,928.644 L 1932.5,939.652 L 1939.91,952.48 L 1944.49,966.568 L 1946.04,981.297 L 1944.49,996.027 L 1939.91,1010.11 L 1932.5,1022.94 L 1922.59,1033.95 L 1910.61,1042.66 L 1897.08,1048.68 L 1882.59,1051.76 L 1867.78,1051.76 L 1853.29,1048.68 L 1839.76,1042.66 L 1832.28,1037.22 L 1622.3,1037.22 L 1622.87,1038.3 L 1625.11,1045.68 L 1625.87,1053.36 L 1625.87,1364.33 z " style="fill-opacity:1.000000;fill:rgb(2,53,57);stroke:rgb(0,0,0);stroke-width:2"/></g>
<g fill-rule="evenodd"><path d="M 0.168624,339.942 L 0.168624,9.99927 L 0.928493,6.17193 L 1.85233,4.44423 L 3.09612,2.92849 L 6.33956,0.760868 L 10.1669,0.000999827 L 1939.83,0.000999827 L 1943.66,0.760868 L 1945.39,1.68471 L 1946.9,2.92849 L 1949.07,6.17193 L 1949.83,9.99927 L 1949.83,339.942 L 1949.34,343.032 L 1947.92,345.817 L 1946.52,347.371 L 1944.83,348.601 L 1942.92,349.451 L 1939.83,349.94 L 1700.04,350.102 L 1699.87,839.854 L 1699.11,843.679 L 1698.19,845.407 L 1695.43,848.166 L 1693.7,849.09 L 1689.88,849.852 L 1631.1,849.852 L 1627.27,849.09 L 1620.76,844.971 L 1589.07,838.668 L 1472.94,838.668 L 1441.24,844.969 L 1436.46,848.166 L 1432.86,849.658 L 1389.3,849.852 L 1389.3,919.132 L 1408.98,919.132 L 1408.98,1076.58 L 1290.89,1076.58 L 1290.89,919.132 L 1310.57,919.132 L 1310.57,849.852 L 1267.01,849.658 L 1263.41,848.166 L 1258.62,844.971 L 1229.74,839.226 L 1107.99,839.226 L 1079.1,844.969 L 1072.59,849.09 L 1068.77,849.852 L 828.135,849.852 L 824.308,849.09 L 822.58,848.166 L 819.821,845.407 L 818.329,841.803 L 818.137,835.914 L 818.897,832.087 L 821.065,828.844 L 825.688,825.522 L 843.091,799.479 L 849.398,767.778 L 849.398,631.98 L 843.093,600.279 L 825.69,574.236 L 799.646,556.833 L 767.956,550.528 L 632.137,550.528 L 600.447,556.831 L 574.403,574.234 L 557,600.277 L 550.695,631.968 L 550.695,650.213 L 558.958,659.391 L 566.159,671.863 L 570.608,685.558 L 572.114,699.88 L 570.608,714.201 L 566.159,727.897 L 558.958,740.369 L 550.695,749.545 L 550.695,767.786 L 556.998,799.477 L 574.401,825.52 L 579.026,828.844 L 581.194,832.087 L 581.956,835.914 L 581.762,841.803 L 580.27,845.407 L 577.511,848.166 L 575.783,849.09 L 571.958,849.852 L 260.124,849.852 L 256.296,849.09 L 254.569,848.166 L 253.053,846.923 L 250.885,843.679 L 250.125,839.854 L 249.961,350.104 L 10.1669,349.94 L 6.33956,349.179 L 3.09612,347.011 L 1.85233,345.495 L 0.928493,343.768 L 0.168624,339.942 z " style="fill-opacity:1.000000;fill:rgb(129,132,184);stroke:rgb(0,0,0);stroke-width:2"/></g>
</svg>
