<?xml version="1.0" standalone="no"?>
<!DOCTYPE svg PUBLIC "-//W3C//DTD SVG 1.1//EN"
"http://www.w3.org/Graphics/SVG/1.1/DTD/svg11.dtd">
<svg width="2161" height="2811" viewBox="0 0 2161 2811" version="1.1"
xmlns="http://www.w3.org/2000/svg"
xmlns:xlink="http://www.w3.org/1999/xlink">
<g fill-rule="evenodd"><path d="M 0,2255.18 L 0,6.02327 L 0.447833,3.76411 L 1.72735,1.84883 L 3.64264,0.569305 L 5.90179,0.121472 L 2155.1,0.121472 L 2157.36,0.569305 L 2159.27,1.84883 L 2160.55,3.76411 L 2161,6.02327 L 2161,2804.98 L 2160.71,2806.8 L 2159.48,2808.93 L 2157.5,2810.37 L 2155.1,2810.88 L 204.675,2810.76 L 202.546,2809.88 L 200.919,2808.26 L 200.037,2806.13 L 199.925,2804.98 L 199.925,2261.08 L 5.90179,2261.08 L 3.64264,2260.63 L 1.72735,2259.35 L 0.447833,2257.44 L 0,2255.18M 11.8036,11.9251 L 11.8036,2249.28 L 205.827,2249.28 L 206.977,2249.39 L 209.106,2250.27 L 210.733,2251.9 L 211.279,2252.92 L 211.729,2255.18 L 211.729,2799.07 L 2149.2,2799.07 L 2149.2,11.9251 L 11.8036,11.9251 z " style="fill-opacity:1.000000;fill:rgb(167,241,217);stroke:rgb(0,0,0);stroke-width:2"/></g>
</svg>
